<svg width="72" height="18" viewBox="0 0 72 18" fill="none" xmlns="http://www.w3.org/2000/svg">
<path d="M66.4383 14.2038C65.7524 14.5648 64.4006 13.8672 64.0123 13.2531C63.8393 12.9783 63.8516 12.7803 63.8516 12.6679V7.15706C63.8516 6.84611 64.0121 6.55719 64.2761 6.39291L68.4749 3.78022C68.7504 3.60878 69.0969 3.59893 69.3817 3.75445L69.4053 3.76735C69.6943 3.92512 69.874 4.22806 69.874 4.55727V9.35607C69.874 9.67838 69.7017 9.97608 69.4221 10.1366L65.5768 12.3444C65.0992 12.6186 64.9893 13.2926 65.5136 13.4613C65.6964 13.5201 65.8818 13.5341 66.0477 13.4734L70.2081 11.2483C70.5009 11.0917 70.6837 10.7867 70.6837 10.4547L70.6837 5.27775C70.6837 4.91502 71.072 4.68456 71.3904 4.8583C71.5438 4.94204 71.6393 5.10291 71.6393 5.27775V10.9673C71.6393 11.3039 71.4516 11.6123 71.1526 11.7668L66.4383 14.2038Z" fill="#256395"/>
<path d="M66.4383 14.2038C65.7524 14.5648 64.4006 13.8672 64.0123 13.2531C63.8393 12.9783 63.8516 12.7803 63.8516 12.6679V7.15706C63.8516 6.84611 64.0121 6.55719 64.2761 6.39291L68.4749 3.78022C68.7504 3.60878 69.0969 3.59893 69.3817 3.75445L69.4053 3.76735C69.6943 3.92512 69.874 4.22806 69.874 4.55727V9.35607C69.874 9.67838 69.7017 9.97608 69.4221 10.1366L65.5768 12.3444C65.0992 12.6186 64.9893 13.2926 65.5136 13.4613C65.6964 13.5201 65.8818 13.5341 66.0477 13.4734L70.2081 11.2483C70.5009 11.0917 70.6837 10.7867 70.6837 10.4547L70.6837 5.27775C70.6837 4.91502 71.072 4.68456 71.3904 4.8583C71.5438 4.94204 71.6393 5.10291 71.6393 5.27775V10.9673C71.6393 11.3039 71.4516 11.6123 71.1526 11.7668L66.4383 14.2038Z" fill="#256395"/>
<path d="M6.08342 14.0742C5.20223 14.0742 4.39004 13.9362 3.64686 13.6601C2.91431 13.3735 2.27199 12.97 1.71992 12.4498C1.17846 11.9296 0.753791 11.3191 0.445904 10.6184C0.148634 9.91772 0 9.148 0 8.30928C0 7.47055 0.148634 6.70083 0.445904 6.00012C0.753791 5.29942 1.18377 4.68895 1.73584 4.16873C2.28792 3.64851 2.93554 3.25038 3.67871 2.97434C4.42189 2.68769 5.23938 2.54436 6.13119 2.54436C7.11855 2.54436 8.00505 2.70892 8.7907 3.03804C9.30551 3.25083 9.76706 3.52575 10.1754 3.8628C10.5499 4.17195 10.514 4.73277 10.1572 5.06217L9.79296 5.39837C9.43142 5.73209 8.87545 5.70121 8.47114 5.42083C8.26213 5.27588 8.04484 5.15578 7.81926 5.06054C7.34151 4.8482 6.82128 4.74204 6.25859 4.74204C5.71714 4.74204 5.22346 4.82697 4.77755 4.99684C4.33165 5.16671 3.94413 5.41089 3.61501 5.7294C3.29651 6.0479 3.04702 6.4248 2.86653 6.86008C2.69666 7.29537 2.61173 7.77844 2.61173 8.30928C2.61173 8.8295 2.69666 9.30725 2.86653 9.74254C3.04702 10.1778 3.29651 10.56 3.61501 10.8892C3.94413 11.2077 4.32634 11.4518 4.76163 11.6217C5.20753 11.7916 5.6959 11.8765 6.22674 11.8765C6.73635 11.8765 7.23003 11.7969 7.70778 11.6376C7.92856 11.5608 8.14609 11.4613 8.36036 11.3389C8.80555 11.0847 9.38969 11.1301 9.70658 11.5331L10.5902 12.6568C9.98509 13.1134 9.27907 13.4637 8.47219 13.7079C7.67594 13.9521 6.87968 14.0742 6.08342 14.0742ZM9.00688 12.4322C8.56312 12.3692 8.23332 11.9893 8.23332 11.5411V9.0341C8.23332 8.53704 8.63626 8.1341 9.13332 8.1341H9.69024C10.1873 8.1341 10.5902 8.53704 10.5902 9.0341V12.6568L9.00688 12.4322Z" fill="#256395"/>
<path d="M13.7116 13.8831C13.2145 13.8831 12.8116 13.4801 12.8116 12.9831V6.21534C12.8116 5.71829 13.2145 5.31534 13.7116 5.31534H14.3959C14.8929 5.31534 15.2959 5.71829 15.2959 6.21534V12.9831C15.2959 13.4801 14.8929 13.8831 14.3959 13.8831H13.7116ZM14.0537 4.12095C13.5972 4.12095 13.2256 3.98824 12.939 3.72283C12.6523 3.45741 12.509 3.12828 12.509 2.73546C12.509 2.34264 12.6523 2.01352 12.939 1.7481C13.2256 1.48268 13.5972 1.34997 14.0537 1.34997C14.5102 1.34997 14.8818 1.47737 15.1685 1.73218C15.4551 1.97636 15.5985 2.29487 15.5985 2.68769C15.5985 3.10174 15.4551 3.44679 15.1685 3.72283C14.8924 3.98824 14.5209 4.12095 14.0537 4.12095Z" fill="#256395"/>
<path d="M33.8043 5.18794C34.4838 5.18794 35.0889 5.32596 35.6198 5.602C36.1612 5.86741 36.5859 6.28147 36.8938 6.84416C37.2017 7.39623 37.3556 8.10756 37.3556 8.97813V12.9831C37.3556 13.4801 36.9527 13.8831 36.4556 13.8831H35.7713C35.2742 13.8831 34.8713 13.4801 34.8713 12.9831V9.36034C34.8713 8.67025 34.7173 8.16064 34.4095 7.83152C34.1122 7.5024 33.6875 7.33784 33.1354 7.33784C32.7426 7.33784 32.387 7.42277 32.0685 7.59264C31.7606 7.75189 31.5164 8.00139 31.3359 8.34113C31.166 8.68086 31.0811 9.11615 31.0811 9.64699V12.9831C31.0811 13.4801 30.6782 13.8831 30.1811 13.8831H29.4968C28.9997 13.8831 28.5968 13.4801 28.5968 12.9831V2.96661C28.5968 2.46955 28.9997 2.06661 29.4968 2.06661H30.1811C30.6782 2.06661 31.0811 2.46955 31.0811 2.96661V6.94604C31.0811 7.1885 30.7743 7.29376 30.6255 7.10237C30.5636 7.02284 30.5537 6.91384 30.6056 6.82746C30.9079 6.3239 31.3212 5.93134 31.8455 5.64977C32.4188 5.34188 33.0717 5.18794 33.8043 5.18794Z" fill="#256395"/>
<path d="M40.5349 17.1C40.089 17.1 39.6484 17.031 39.2131 16.8929C39.039 16.8377 38.8777 16.774 38.729 16.7018C38.359 16.5221 38.2776 16.0636 38.4655 15.6977L38.7027 15.2358C38.8806 14.8895 39.3442 14.8082 39.7068 14.9501C39.9616 15.0456 40.2111 15.0934 40.4553 15.0934C40.8057 15.0934 41.0817 15.0085 41.2834 14.8386C41.4957 14.6793 41.6869 14.4086 41.8567 14.0264L42.265 13.0641C42.29 13.0051 42.3213 12.9489 42.3582 12.8966L42.4363 12.786C42.4745 12.7319 42.5066 12.6738 42.532 12.6126L45.3367 5.8697C45.4763 5.53404 45.8042 5.31534 46.1677 5.31534H46.5949C47.2401 5.31534 47.6757 5.97415 47.4231 6.56777L44.0862 14.4086C43.8102 15.0987 43.4917 15.6402 43.1307 16.033C42.7804 16.4258 42.3876 16.7018 41.9523 16.8611C41.5276 17.0203 41.0551 17.1 40.5349 17.1ZM42.94 13.26C42.4916 13.7168 41.7232 13.5727 41.4707 12.9846L38.7169 6.5704C38.4618 5.97646 38.8975 5.31534 39.5438 5.31534H40.1401C40.5044 5.31534 40.8327 5.53491 40.9719 5.87155L43.4768 11.9319C43.6146 12.2653 43.54 12.6488 43.2873 12.9062L42.94 13.26Z" fill="#256395"/>
<path d="M50.045 13.8831C49.5479 13.8831 49.145 13.4801 49.145 12.9831V3.63546C49.145 3.13841 49.5479 2.73546 50.045 2.73546H50.8249C51.3219 2.73546 51.7249 3.13841 51.7249 3.63546V10.881C51.7249 11.378 52.1278 11.781 52.6249 11.781H56.4146C56.9116 11.781 57.3146 12.1839 57.3146 12.681V12.9831C57.3146 13.4801 56.9116 13.8831 56.4146 13.8831H50.045Z" fill="#256395"/>
<path d="M59.4809 13.8831C58.9838 13.8831 58.5809 13.4801 58.5809 12.9831V6.21534C58.5809 5.71829 58.9838 5.31534 59.4809 5.31534H60.1652C60.6623 5.31534 61.0652 5.71829 61.0652 6.21534V12.9831C61.0652 13.4801 60.6623 13.8831 60.1652 13.8831H59.4809ZM59.823 4.12095C59.3665 4.12095 58.9949 3.98824 58.7083 3.72283C58.4216 3.45741 58.2783 3.12828 58.2783 2.73546C58.2783 2.34264 58.4216 2.01352 58.7083 1.7481C58.9949 1.48268 59.3665 1.34997 59.823 1.34997C60.2796 1.34997 60.6512 1.47737 60.9378 1.73218C61.2245 1.97636 61.3678 2.29487 61.3678 2.68769C61.3678 3.10174 61.2245 3.44679 60.9378 3.72283C60.6618 3.98824 60.2902 4.12095 59.823 4.12095Z" fill="#256395"/>
<path d="M20.9883 3.69894C20.3024 3.33792 18.9507 4.03549 18.5623 4.64961C18.3893 4.92441 18.4016 5.12245 18.4016 5.23481V10.7457C18.4016 11.0566 18.5621 11.3456 18.8261 11.5098L23.0249 14.1225C23.3004 14.294 23.6469 14.3038 23.9317 14.1483L23.9554 14.1354C24.2443 13.9776 24.424 13.6747 24.424 13.3455V8.54668C24.424 8.22437 24.2517 7.92666 23.9722 7.76618L20.1268 5.55838C19.6492 5.28417 19.5393 4.61017 20.0636 4.44144C20.2464 4.38259 20.4318 4.36868 20.5978 4.42933L24.7581 6.65447C25.0509 6.81105 25.2337 7.11609 25.2337 7.44809L25.2337 12.625C25.2337 12.9877 25.622 13.2182 25.9404 13.0444C26.0939 12.9607 26.1893 12.7998 26.1893 12.625V6.93542C26.1893 6.59888 26.0016 6.29046 25.7026 6.13592L20.9883 3.69894Z" fill="#256395"/>
<path d="M20.9883 3.69894C20.3024 3.33792 18.9507 4.03549 18.5623 4.64961C18.3893 4.92441 18.4016 5.12245 18.4016 5.23481V10.7457C18.4016 11.0566 18.5621 11.3456 18.8261 11.5098L23.0249 14.1225C23.3004 14.294 23.6469 14.3038 23.9317 14.1483L23.9554 14.1354C24.2443 13.9776 24.424 13.6747 24.424 13.3455V8.54668C24.424 8.22437 24.2517 7.92666 23.9722 7.76618L20.1268 5.55838C19.6492 5.28417 19.5393 4.61017 20.0636 4.44144C20.2464 4.38259 20.4318 4.36868 20.5978 4.42933L24.7581 6.65447C25.0509 6.81105 25.2337 7.11609 25.2337 7.44809L25.2337 12.625C25.2337 12.9877 25.622 13.2182 25.9404 13.0444C26.0939 12.9607 26.1893 12.7998 26.1893 12.625V6.93542C26.1893 6.59888 26.0016 6.29046 25.7026 6.13592L20.9883 3.69894Z" fill="#256395"/>
<path d="M18.45 9.9C18.45 9.15442 19.0544 8.55 19.8 8.55C20.5456 8.55 21.15 9.15442 21.15 9.9V16.65C21.15 17.3956 20.5456 18 19.8 18C19.0544 18 18.45 17.3956 18.45 16.65V9.9Z" fill="#256395"/>
<path d="M63.9 1.35C63.9 0.604416 64.5044 0 65.25 0C65.9956 0 66.6 0.604416 66.6 1.35V8.1C66.6 8.84558 65.9956 9.45 65.25 9.45C64.5044 9.45 63.9 8.84558 63.9 8.1V1.35Z" fill="#256395"/>
</svg>
